<svg id="visual" viewBox="0 0 900 600" width="900" height="600" xmlns="http://www.w3.org/2000/svg" xmlns:xlink="http://www.w3.org/1999/xlink" version="1.1"><rect x="0" y="0" width="900" height="600" fill="#fcf8f8"></rect><path d="M0 465L30 465.2C60 465.3 120 465.7 180 477C240 488.3 300 510.7 360 509.7C420 508.7 480 484.3 540 483.7C600 483 660 506 720 513.8C780 521.7 840 514.3 870 510.7L900 507L900 601L870 601C840 601 780 601 720 601C660 601 600 601 540 601C480 601 420 601 360 601C300 601 240 601 180 601C120 601 60 601 30 601L0 601Z" fill="#B11830" stroke-linecap="round" stroke-linejoin="miter"></path></svg>